HIERARCHY
ROOT Hips
{
	OFFSET 55.640301 10.169885 95.450699
	CHANNELS 6 Xposition Yposition Zposition Xrotation Yrotation Zrotation
	JOINT spine
	{
		OFFSET 0.000000 -0.458069 7.965683
		CHANNELS 3 Xrotation Yrotation Zrotation
		JOINT spine1
		{
			OFFSET 0.000000 -0.000001 10.243103
			CHANNELS 3 Xrotation Yrotation Zrotation
			JOINT spine2
			{
				OFFSET 0.000000 -0.000002 9.814751
				CHANNELS 3 Xrotation Yrotation Zrotation
				JOINT Neck
				{
					OFFSET 0.000000 -1.201384 25.198601
					CHANNELS 3 Xrotation Yrotation Zrotation
					JOINT Head
					{
						OFFSET 0.000000 -0.000002 7.613144
						CHANNELS 3 Xrotation Yrotation Zrotation
						End Site
						{
							OFFSET 0.000000 6.077328 18.428101
						}
					}
				}
				JOINT RightShoulder
				{
					OFFSET -4.132702 0.575449 10.599205
					CHANNELS 3 Xrotation Yrotation Zrotation
					JOINT RightArm
					{
						OFFSET 0.000000 -0.000002 13.901794
						CHANNELS 3 Xrotation Yrotation Zrotation
						JOINT RightArmRoll
						{
							OFFSET 0.000000 -0.000001 7.017883
							CHANNELS 3 Xrotation Yrotation Zrotation
							JOINT RightForeArm
							{
								OFFSET 0.000000 -0.000004 20.440598
								CHANNELS 3 Xrotation Yrotation Zrotation
								JOINT RightForeArmRoll
								{
									OFFSET 0.000000 -0.000001 7.875153
									CHANNELS 3 Xrotation Yrotation Zrotation
									JOINT RightHand
									{
										OFFSET 0.000000 -0.000003 15.803696
										CHANNELS 3 Xrotation Yrotation Zrotation
										End Site
										{
											OFFSET 0.000000 0.000000 0.100006
										}
									}
								}
							}
						}
					}
				}
				JOINT LeftShoulder
				{
					OFFSET 4.132702 0.575449 10.599205
					CHANNELS 3 Xrotation Yrotation Zrotation
					JOINT LeftArm
					{
						OFFSET 0.000000 -0.000002 13.901794
						CHANNELS 3 Xrotation Yrotation Zrotation
						JOINT LeftArmRoll
						{
							OFFSET 0.000000 -0.000001 7.017883
							CHANNELS 3 Xrotation Yrotation Zrotation
							JOINT LeftForeArm
							{
								OFFSET 0.000000 -0.000004 20.440598
								CHANNELS 3 Xrotation Yrotation Zrotation
								JOINT LeftForeArmRoll
								{
									OFFSET 0.000000 -0.000001 7.875153
									CHANNELS 3 Xrotation Yrotation Zrotation
									JOINT LeftHand
									{
										OFFSET 0.000000 -0.000003 15.803696
										CHANNELS 3 Xrotation Yrotation Zrotation
										End Site
										{
											OFFSET 0.000000 0.000000 0.100006
										}
									}
								}
							}
						}
					}
				}
			}
		}
	}
	JOINT RightUpLeg
	{
		OFFSET -7.060482 1.086090 -1.294701
		CHANNELS 3 Xrotation Yrotation Zrotation
		JOINT RightUpLegRoll
		{
			OFFSET 0.000000 -0.000003 18.530800
			CHANNELS 3 Xrotation Yrotation Zrotation
			JOINT RightLeg
			{
				OFFSET 0.000000 0.000004 -22.947601
				CHANNELS 3 Xrotation Yrotation Zrotation
				JOINT RightLegRoll
				{
					OFFSET 0.000000 -0.000004 23.022598
					CHANNELS 3 Xrotation Yrotation Zrotation
					JOINT RightFoot
					{
						OFFSET 0.000000 -0.000004 19.162506
						CHANNELS 3 Xrotation Yrotation Zrotation
						JOINT RightToeBase
						{
							OFFSET 0.000000 -0.000002 16.018799
							CHANNELS 3 Xrotation Yrotation Zrotation
							End Site
							{
								OFFSET 0.006790 0.894205 7.757828
							}
						}
					}
				}
			}
		}
	}
	JOINT LeftUpLeg
	{
		OFFSET 7.060482 1.086090 -1.294701
		CHANNELS 3 Xrotation Yrotation Zrotation
		JOINT LeftUpLegRoll
		{
			OFFSET 0.000000 -0.000003 18.530899
			CHANNELS 3 Xrotation Yrotation Zrotation
			JOINT LeftLeg
			{
				OFFSET 0.000000 -0.000004 22.947502
				CHANNELS 3 Xrotation Yrotation Zrotation
				JOINT LeftLegRoll
				{
					OFFSET 0.000000 -0.000004 23.235504
					CHANNELS 3 Xrotation Yrotation Zrotation
					JOINT LeftFoot
					{
						OFFSET 0.000000 -0.000003 18.949600
						CHANNELS 3 Xrotation Yrotation Zrotation
						JOINT LeftToeBase
						{
							OFFSET 0.000000 -0.000003 16.018799
							CHANNELS 3 Xrotation Yrotation Zrotation
							End Site
							{
								OFFSET -0.030430 0.894205 7.757828
							}
						}
					}
				}
			}
		}
	}
}
MOTION
Frames: 4
Frame Time: 0.041667
51.955097 -8.086072 96.729691 -2.121858 0.529694 0.836186 -0.249326 -0.404159 -0.266876 3.502451 -0.786959 -0.509559 5.147594 -0.792877 -0.499998 12.317981 1.533874 0.262319 15.432061 -1.298328 0.505110 -19.663160 -76.207720 -23.147689 -82.759080 -107.400333 -67.878092 -0.000001 0.000004 0.000001 13.174419 -5.802833 -0.304198 -0.000001 0.000008 -2.999999 -5.000174 -7.999281 0.000090 -3.159060 61.470050 4.000236 -40.794661 114.567353 33.316338 0.000000 0.000001 -0.000000 4.667937 5.982330 0.579852 0.000001 -0.000007 3.000001 -5.000216 7.999262 -0.000098 -1.113892 -177.778418 1.650295 -179.999991 0.000005 -1.182997 170.926044 -0.287360 -0.649895 -0.000006 0.000002 0.088518 68.475898 6.956025 2.007127 25.456868 -7.346073 -0.000009 0.661913 174.754338 -1.889737 -0.000020 -0.000005 -1.148600 -6.920832 2.306062 0.321473 -0.000002 -0.000004 -0.093425 69.115190 -6.915804 -2.041776 25.456899 7.344916 -0.000001 
51.937798 -8.056699 96.726082 -2.084170 0.530478 0.823364 -0.245228 -0.404159 -0.266909 3.510642 -0.788053 -0.510371 5.155788 -0.793983 -0.500800 12.291519 1.575321 0.258352 15.445821 -1.323487 0.504905 -19.590675 -76.174040 -23.069814 -82.550500 -107.343861 -67.749036 -0.000001 0.000004 0.000002 13.319326 -5.853655 -0.293021 -0.000002 0.000007 -3.000000 -5.000176 -7.999281 0.000090 -3.152428 61.468301 3.992368 -40.666137 114.532874 33.226121 -0.000001 -0.000001 0.000000 4.739102 6.023111 0.573593 0.000000 -0.000007 3.000000 -5.000216 7.999262 -0.000098 -1.193090 -177.791477 1.624315 -179.999991 0.000005 -1.182997 170.874025 -0.272509 -0.651780 -0.000006 0.000002 0.088505 68.469238 6.956003 2.007440 25.456870 -7.346073 -0.000009 0.591479 174.753286 -1.879418 -0.000020 -0.000004 -1.148150 -6.966926 2.303136 0.322953 -0.000001 -0.000004 -0.094231 69.121849 -6.915797 -2.041761 25.456901 7.344915 -0.000001 
51.941200 -8.046056 96.725983 -2.046358 0.531509 0.810255 -0.241189 -0.404159 -0.266956 3.518724 -0.789175 -0.511232 5.163869 -0.795119 -0.501650 12.264258 1.616556 0.254667 15.460789 -1.348721 0.504991 -19.518493 -76.140558 -22.992254 -82.341141 -107.286289 -67.620341 -0.000001 0.000004 0.000001 13.466305 -5.905570 -0.281350 0.000001 0.000006 -3.000001 -5.000175 -7.999282 0.000090 -3.145681 61.466061 3.984319 -40.536432 114.497002 33.134648 -0.000001 -0.000001 0.000000 4.810751 6.063925 0.567179 0.000002 -0.000006 3.000000 -5.000218 7.999262 -0.000098 -1.272240 -177.804536 1.598264 -179.999991 0.000005 -1.182000 170.822225 -0.257662 -0.653623 -0.000007 0.000002 0.088485 68.462517 6.956046 2.007672 25.456870 -7.346073 -0.000010 0.521231 174.752220 -1.869313 -0.000020 -0.000005 -1.147711 -7.012629 2.300262 0.324381 -0.000002 -0.000004 -0.095032 69.128502 -6.915787 -2.041743 25.456899 7.344914 0.000000 
51.928902 -8.043466 96.723083 -2.008466 0.532708 0.796948 -0.237179 -0.404160 -0.267015 3.526736 -0.790319 -0.512127 5.171871 -0.796277 -0.502533 12.236301 1.657648 0.251196 15.476568 -1.374024 0.505288 -19.446923 -76.107364 -22.915303 -82.130593 -107.228130 -67.491490 -0.000001 0.000004 0.000004 13.614858 -5.958236 -0.269217 -0.000003 0.000008 -2.999999 -5.000176 -7.999282 0.000091 -3.138842 61.463506 3.976130 -40.404435 114.460631 33.040753 -0.000001 0.000000 -0.000000 4.882716 6.104756 0.560614 0.000001 -0.000007 3.000001 -5.000218 7.999263 -0.000098 -1.351359 -177.818607 1.572203 -179.999991 0.000005 -1.181003 170.770603 -0.242820 -0.654455 -0.000007 0.000002 0.088461 68.455769 6.956049 2.007998 25.456870 -7.346073 -0.000009 0.451124 174.750158 -1.859357 -0.000020 -0.000005 -1.147290 -7.058043 2.297397 0.325769 -0.000001 -0.000004 -0.095828 69.135264 -6.915784 -2.041819 25.456899 7.344914 0.000000 
